<svg width="435" height="435" viewBox="0 0 435 435" fill="none" xmlns="http://www.w3.org/2000/svg">
<g clip-path="url(#clip0_97_2)">
<path d="M426.3 222.503C426.3 204.668 424.125 191.618 420.863 177.915H217.5V258.825H337.125C333.863 279.705 321.03 309.068 292.755 328.86V382.148H361.485C402.593 344.52 426.3 288.623 426.3 222.503Z" fill="#4285F4"/>
<path d="M292.755 329.077C274.702 341.91 250.125 350.827 217.5 350.827C160.08 350.827 111.36 312.982 93.96 260.565H23.2725V315.375C59.16 386.062 132.457 435 217.5 435C276.225 435 325.38 415.642 361.485 382.365L292.755 329.077Z" fill="#34A853"/>
<path d="M86.7825 217.5C86.7825 202.493 89.3925 188.138 93.7425 174.653V119.843H23.2725C7.98507 150.127 0.0140983 183.576 0 217.5C0 252.518 8.4825 285.795 23.2725 315.158L93.7425 260.348C89.3925 246.863 86.7825 232.508 86.7825 217.5Z" fill="#FBBC05"/>
<path d="M217.5 84.39C258.39 84.39 285.577 102.008 301.237 116.58L363.007 56.55C325.38 21.5325 276.225 0 217.5 0C132.457 0 59.16 48.9375 23.2725 119.843L93.7425 174.652C111.36 122.235 160.08 84.39 217.5 84.39Z" fill="#EA4335"/>
</g>
<defs>
<clipPath id="clip0_97_2">
<rect width="435" height="435" fill="white"/>
</clipPath>
</defs>
</svg>
